solid OpenSCAD_Model
  facet normal 0.999507 0.0314109 0
    outer loop
      vertex 23.75 0 -41
      vertex 23.7031 1.49127 -46
      vertex 23.7031 1.49127 -41
    endloop
  endfacet
  facet normal 0.999507 0.0314109 0
    outer loop
      vertex 23.7031 1.49127 -46
      vertex 23.75 0 -41
      vertex 23.75 0 -46
    endloop
  endfacet
  facet normal 0.995562 0.0941075 0
    outer loop
      vertex 23.7031 1.49127 -41
      vertex 23.5627 2.97666 -46
      vertex 23.5627 2.97666 -41
    endloop
  endfacet
  facet normal 0.995562 0.0941075 0
    outer loop
      vertex 23.5627 2.97666 -46
      vertex 23.7031 1.49127 -41
      vertex 23.7031 1.49127 -46
    endloop
  endfacet
  facet normal 0.987688 0.156435 0
    outer loop
      vertex 23.5627 2.97666 -41
      vertex 23.3293 4.45031 -46
      vertex 23.3293 4.45031 -41
    endloop
  endfacet
  facet normal 0.987688 0.156435 0
    outer loop
      vertex 23.3293 4.45031 -46
      vertex 23.5627 2.97666 -41
      vertex 23.5627 2.97666 -46
    endloop
  endfacet
  facet normal 0.975917 0.218143 0
    outer loop
      vertex 23.3293 4.45031 -41
      vertex 23.0039 5.90638 -46
      vertex 23.0039 5.90638 -41
    endloop
  endfacet
  facet normal 0.975917 0.218143 0
    outer loop
      vertex 23.0039 5.90638 -46
      vertex 23.3293 4.45031 -41
      vertex 23.3293 4.45031 -46
    endloop
  endfacet
  facet normal 0.960294 0.278991 0
    outer loop
      vertex 23.0039 5.90638 -41
      vertex 22.5876 7.33915 -46
      vertex 22.5876 7.33915 -41
    endloop
  endfacet
  facet normal 0.960294 0.278991 0
    outer loop
      vertex 22.5876 7.33915 -46
      vertex 23.0039 5.90638 -41
      vertex 23.0039 5.90638 -46
    endloop
  endfacet
  facet normal 0.940881 0.338738 0
    outer loop
      vertex 22.5876 7.33915 -41
      vertex 22.0822 8.74296 -46
      vertex 22.0822 8.74296 -41
    endloop
  endfacet
  facet normal 0.940881 0.338738 0
    outer loop
      vertex 22.0822 8.74296 -46
      vertex 22.5876 7.33915 -41
      vertex 22.5876 7.33915 -46
    endloop
  endfacet
  facet normal 0.917755 0.397148 0
    outer loop
      vertex 22.0822 8.74296 -41
      vertex 21.4896 10.1123 -46
      vertex 21.4896 10.1123 -41
    endloop
  endfacet
  facet normal 0.917755 0.397148 0
    outer loop
      vertex 21.4896 10.1123 -46
      vertex 22.0822 8.74296 -41
      vertex 22.0822 8.74296 -46
    endloop
  endfacet
  facet normal 0.891007 0.45399 0
    outer loop
      vertex 21.4896 10.1123 -41
      vertex 20.8123 11.4416 -46
      vertex 20.8123 11.4416 -41
    endloop
  endfacet
  facet normal 0.891007 0.45399 0
    outer loop
      vertex 20.8123 11.4416 -46
      vertex 21.4896 10.1123 -41
      vertex 21.4896 10.1123 -46
    endloop
  endfacet
  facet normal 0.860742 0.509042 0
    outer loop
      vertex 20.8123 11.4416 -41
      vertex 20.0528 12.7259 -46
      vertex 20.0528 12.7259 -41
    endloop
  endfacet
  facet normal 0.860742 0.509042 0
    outer loop
      vertex 20.0528 12.7259 -46
      vertex 20.8123 11.4416 -41
      vertex 20.8123 11.4416 -46
    endloop
  endfacet
  facet normal 0.827081 0.562083 0
    outer loop
      vertex 20.0528 12.7259 -41
      vertex 19.2142 13.9599 -46
      vertex 19.2142 13.9599 -41
    endloop
  endfacet
  facet normal 0.827081 0.562083 0
    outer loop
      vertex 19.2142 13.9599 -46
      vertex 20.0528 12.7259 -41
      vertex 20.0528 12.7259 -46
    endloop
  endfacet
  facet normal 0.790155 0.612907 0
    outer loop
      vertex 19.2142 13.9599 -41
      vertex 18.2997 15.1388 -46
      vertex 18.2997 15.1388 -41
    endloop
  endfacet
  facet normal 0.790155 0.612907 0
    outer loop
      vertex 18.2997 15.1388 -46
      vertex 19.2142 13.9599 -41
      vertex 19.2142 13.9599 -46
    endloop
  endfacet
  facet normal 0.750111 0.661312 0
    outer loop
      vertex 18.2997 15.1388 -41
      vertex 17.313 16.258 -46
      vertex 17.313 16.258 -41
    endloop
  endfacet
  facet normal 0.750111 0.661312 0
    outer loop
      vertex 17.313 16.258 -46
      vertex 18.2997 15.1388 -41
      vertex 18.2997 15.1388 -46
    endloop
  endfacet
  facet normal 0.707107 0.707107 0
    outer loop
      vertex 17.313 16.258 -41
      vertex 16.258 17.313 -46
      vertex 16.258 17.313 -41
    endloop
  endfacet
  facet normal 0.707107 0.707107 0
    outer loop
      vertex 16.258 17.313 -46
      vertex 17.313 16.258 -41
      vertex 17.313 16.258 -46
    endloop
  endfacet
  facet normal 0.661312 0.750111 -0
    outer loop
      vertex 16.258 17.313 -46
      vertex 15.1388 18.2997 -41
      vertex 16.258 17.313 -41
    endloop
  endfacet
  facet normal 0.661312 0.750111 0
    outer loop
      vertex 15.1388 18.2997 -41
      vertex 16.258 17.313 -46
      vertex 15.1388 18.2997 -46
    endloop
  endfacet
  facet normal 0.612907 0.790155 -0
    outer loop
      vertex 15.1388 18.2997 -46
      vertex 13.9599 19.2142 -41
      vertex 15.1388 18.2997 -41
    endloop
  endfacet
  facet normal 0.612907 0.790155 0
    outer loop
      vertex 13.9599 19.2142 -41
      vertex 15.1388 18.2997 -46
      vertex 13.9599 19.2142 -46
    endloop
  endfacet
  facet normal 0.562083 0.827081 -0
    outer loop
      vertex 13.9599 19.2142 -46
      vertex 12.7259 20.0528 -41
      vertex 13.9599 19.2142 -41
    endloop
  endfacet
  facet normal 0.562083 0.827081 0
    outer loop
      vertex 12.7259 20.0528 -41
      vertex 13.9599 19.2142 -46
      vertex 12.7259 20.0528 -46
    endloop
  endfacet
  facet normal 0.509042 0.860742 -0
    outer loop
      vertex 12.7259 20.0528 -46
      vertex 11.4416 20.8123 -41
      vertex 12.7259 20.0528 -41
    endloop
  endfacet
  facet normal 0.509042 0.860742 0
    outer loop
      vertex 11.4416 20.8123 -41
      vertex 12.7259 20.0528 -46
      vertex 11.4416 20.8123 -46
    endloop
  endfacet
  facet normal 0.45399 0.891007 -0
    outer loop
      vertex 11.4416 20.8123 -46
      vertex 10.1123 21.4896 -41
      vertex 11.4416 20.8123 -41
    endloop
  endfacet
  facet normal 0.45399 0.891007 0
    outer loop
      vertex 10.1123 21.4896 -41
      vertex 11.4416 20.8123 -46
      vertex 10.1123 21.4896 -46
    endloop
  endfacet
  facet normal 0.397148 0.917755 -0
    outer loop
      vertex 10.1123 21.4896 -46
      vertex 8.74296 22.0822 -41
      vertex 10.1123 21.4896 -41
    endloop
  endfacet
  facet normal 0.397148 0.917755 0
    outer loop
      vertex 8.74296 22.0822 -41
      vertex 10.1123 21.4896 -46
      vertex 8.74296 22.0822 -46
    endloop
  endfacet
  facet normal 0.338738 0.940881 -0
    outer loop
      vertex 8.74296 22.0822 -46
      vertex 7.33915 22.5876 -41
      vertex 8.74296 22.0822 -41
    endloop
  endfacet
  facet normal 0.338738 0.940881 0
    outer loop
      vertex 7.33915 22.5876 -41
      vertex 8.74296 22.0822 -46
      vertex 7.33915 22.5876 -46
    endloop
  endfacet
  facet normal 0.278991 0.960294 -0
    outer loop
      vertex 7.33915 22.5876 -46
      vertex 5.90638 23.0039 -41
      vertex 7.33915 22.5876 -41
    endloop
  endfacet
  facet normal 0.278991 0.960294 0
    outer loop
      vertex 5.90638 23.0039 -41
      vertex 7.33915 22.5876 -46
      vertex 5.90638 23.0039 -46
    endloop
  endfacet
  facet normal 0.218143 0.975917 -0
    outer loop
      vertex 5.90638 23.0039 -46
      vertex 4.45031 23.3293 -41
      vertex 5.90638 23.0039 -41
    endloop
  endfacet
  facet normal 0.218143 0.975917 0
    outer loop
      vertex 4.45031 23.3293 -41
      vertex 5.90638 23.0039 -46
      vertex 4.45031 23.3293 -46
    endloop
  endfacet
  facet normal 0.156435 0.987688 -0
    outer loop
      vertex 4.45031 23.3293 -46
      vertex 2.97666 23.5627 -41
      vertex 4.45031 23.3293 -41
    endloop
  endfacet
  facet normal 0.156435 0.987688 0
    outer loop
      vertex 2.97666 23.5627 -41
      vertex 4.45031 23.3293 -46
      vertex 2.97666 23.5627 -46
    endloop
  endfacet
  facet normal 0.0941075 0.995562 -0
    outer loop
      vertex 2.97666 23.5627 -46
      vertex 1.49127 23.7031 -41
      vertex 2.97666 23.5627 -41
    endloop
  endfacet
  facet normal 0.0941075 0.995562 0
    outer loop
      vertex 1.49127 23.7031 -41
      vertex 2.97666 23.5627 -46
      vertex 1.49127 23.7031 -46
    endloop
  endfacet
  facet normal 0.0314109 0.999507 -0
    outer loop
      vertex 1.49127 23.7031 -46
      vertex 1.45427e-15 23.75 -41
      vertex 1.49127 23.7031 -41
    endloop
  endfacet
  facet normal 0.0314109 0.999507 0
    outer loop
      vertex 1.45427e-15 23.75 -41
      vertex 1.49127 23.7031 -46
      vertex 1.45427e-15 23.75 -46
    endloop
  endfacet
  facet normal -0.0314109 0.999507 0
    outer loop
      vertex 1.45427e-15 23.75 -46
      vertex -1.49127 23.7031 -41
      vertex 1.45427e-15 23.75 -41
    endloop
  endfacet
  facet normal -0.0314109 0.999507 0
    outer loop
      vertex -1.49127 23.7031 -41
      vertex 1.45427e-15 23.75 -46
      vertex -1.49127 23.7031 -46
    endloop
  endfacet
  facet normal -0.0941075 0.995562 0
    outer loop
      vertex -1.49127 23.7031 -46
      vertex -2.97666 23.5627 -41
      vertex -1.49127 23.7031 -41
    endloop
  endfacet
  facet normal -0.0941075 0.995562 0
    outer loop
      vertex -2.97666 23.5627 -41
      vertex -1.49127 23.7031 -46
      vertex -2.97666 23.5627 -46
    endloop
  endfacet
  facet normal -0.156435 0.987688 0
    outer loop
      vertex -2.97666 23.5627 -46
      vertex -4.45031 23.3293 -41
      vertex -2.97666 23.5627 -41
    endloop
  endfacet
  facet normal -0.156435 0.987688 0
    outer loop
      vertex -4.45031 23.3293 -41
      vertex -2.97666 23.5627 -46
      vertex -4.45031 23.3293 -46
    endloop
  endfacet
  facet normal -0.218143 0.975917 0
    outer loop
      vertex -4.45031 23.3293 -46
      vertex -5.90638 23.0039 -41
      vertex -4.45031 23.3293 -41
    endloop
  endfacet
  facet normal -0.218143 0.975917 0
    outer loop
      vertex -5.90638 23.0039 -41
      vertex -4.45031 23.3293 -46
      vertex -5.90638 23.0039 -46
    endloop
  endfacet
  facet normal -0.278991 0.960294 0
    outer loop
      vertex -5.90638 23.0039 -46
      vertex -7.33915 22.5876 -41
      vertex -5.90638 23.0039 -41
    endloop
  endfacet
  facet normal -0.278991 0.960294 0
    outer loop
      vertex -7.33915 22.5876 -41
      vertex -5.90638 23.0039 -46
      vertex -7.33915 22.5876 -46
    endloop
  endfacet
  facet normal -0.338738 0.940881 0
    outer loop
      vertex -7.33915 22.5876 -46
      vertex -8.74296 22.0822 -41
      vertex -7.33915 22.5876 -41
    endloop
  endfacet
  facet normal -0.338738 0.940881 0
    outer loop
      vertex -8.74296 22.0822 -41
      vertex -7.33915 22.5876 -46
      vertex -8.74296 22.0822 -46
    endloop
  endfacet
  facet normal -0.397148 0.917755 0
    outer loop
      vertex -8.74296 22.0822 -46
      vertex -10.1123 21.4896 -41
      vertex -8.74296 22.0822 -41
    endloop
  endfacet
  facet normal -0.397148 0.917755 0
    outer loop
      vertex -10.1123 21.4896 -41
      vertex -8.74296 22.0822 -46
      vertex -10.1123 21.4896 -46
    endloop
  endfacet
  facet normal -0.45399 0.891007 0
    outer loop
      vertex -10.1123 21.4896 -46
      vertex -11.4416 20.8123 -41
      vertex -10.1123 21.4896 -41
    endloop
  endfacet
  facet normal -0.45399 0.891007 0
    outer loop
      vertex -11.4416 20.8123 -41
      vertex -10.1123 21.4896 -46
      vertex -11.4416 20.8123 -46
    endloop
  endfacet
  facet normal -0.509042 0.860742 0
    outer loop
      vertex -11.4416 20.8123 -46
      vertex -12.7259 20.0528 -41
      vertex -11.4416 20.8123 -41
    endloop
  endfacet
  facet normal -0.509042 0.860742 0
    outer loop
      vertex -12.7259 20.0528 -41
      vertex -11.4416 20.8123 -46
      vertex -12.7259 20.0528 -46
    endloop
  endfacet
  facet normal -0.562083 0.827081 0
    outer loop
      vertex -12.7259 20.0528 -46
      vertex -13.9599 19.2142 -41
      vertex -12.7259 20.0528 -41
    endloop
  endfacet
  facet normal -0.562083 0.827081 0
    outer loop
      vertex -13.9599 19.2142 -41
      vertex -12.7259 20.0528 -46
      vertex -13.9599 19.2142 -46
    endloop
  endfacet
  facet normal -0.612907 0.790155 0
    outer loop
      vertex -13.9599 19.2142 -46
      vertex -15.1388 18.2997 -41
      vertex -13.9599 19.2142 -41
    endloop
  endfacet
  facet normal -0.612907 0.790155 0
    outer loop
      vertex -15.1388 18.2997 -41
      vertex -13.9599 19.2142 -46
      vertex -15.1388 18.2997 -46
    endloop
  endfacet
  facet normal -0.661312 0.750111 0
    outer loop
      vertex -15.1388 18.2997 -46
      vertex -16.258 17.313 -41
      vertex -15.1388 18.2997 -41
    endloop
  endfacet
  facet normal -0.661312 0.750111 0
    outer loop
      vertex -16.258 17.313 -41
      vertex -15.1388 18.2997 -46
      vertex -16.258 17.313 -46
    endloop
  endfacet
  facet normal -0.707107 0.707107 0
    outer loop
      vertex -17.313 16.258 -46
      vertex -16.258 17.313 -41
      vertex -16.258 17.313 -46
    endloop
  endfacet
  facet normal -0.707107 0.707107 0
    outer loop
      vertex -16.258 17.313 -41
      vertex -17.313 16.258 -46
      vertex -17.313 16.258 -41
    endloop
  endfacet
  facet normal -0.750111 0.661312 0
    outer loop
      vertex -18.2997 15.1388 -46
      vertex -17.313 16.258 -41
      vertex -17.313 16.258 -46
    endloop
  endfacet
  facet normal -0.750111 0.661312 0
    outer loop
      vertex -17.313 16.258 -41
      vertex -18.2997 15.1388 -46
      vertex -18.2997 15.1388 -41
    endloop
  endfacet
  facet normal -0.790155 0.612907 0
    outer loop
      vertex -19.2142 13.9599 -46
      vertex -18.2997 15.1388 -41
      vertex -18.2997 15.1388 -46
    endloop
  endfacet
  facet normal -0.790155 0.612907 0
    outer loop
      vertex -18.2997 15.1388 -41
      vertex -19.2142 13.9599 -46
      vertex -19.2142 13.9599 -41
    endloop
  endfacet
  facet normal -0.827081 0.562083 0
    outer loop
      vertex -20.0528 12.7259 -46
      vertex -19.2142 13.9599 -41
      vertex -19.2142 13.9599 -46
    endloop
  endfacet
  facet normal -0.827081 0.562083 0
    outer loop
      vertex -19.2142 13.9599 -41
      vertex -20.0528 12.7259 -46
      vertex -20.0528 12.7259 -41
    endloop
  endfacet
  facet normal -0.860742 0.509042 0
    outer loop
      vertex -20.8123 11.4416 -46
      vertex -20.0528 12.7259 -41
      vertex -20.0528 12.7259 -46
    endloop
  endfacet
  facet normal -0.860742 0.509042 0
    outer loop
      vertex -20.0528 12.7259 -41
      vertex -20.8123 11.4416 -46
      vertex -20.8123 11.4416 -41
    endloop
  endfacet
  facet normal -0.891007 0.45399 0
    outer loop
      vertex -21.4896 10.1123 -46
      vertex -20.8123 11.4416 -41
      vertex -20.8123 11.4416 -46
    endloop
  endfacet
  facet normal -0.891007 0.45399 0
    outer loop
      vertex -20.8123 11.4416 -41
      vertex -21.4896 10.1123 -46
      vertex -21.4896 10.1123 -41
    endloop
  endfacet
  facet normal -0.917755 0.397148 0
    outer loop
      vertex -22.0822 8.74296 -46
      vertex -21.4896 10.1123 -41
      vertex -21.4896 10.1123 -46
    endloop
  endfacet
  facet normal -0.917755 0.397148 0
    outer loop
      vertex -21.4896 10.1123 -41
      vertex -22.0822 8.74296 -46
      vertex -22.0822 8.74296 -41
    endloop
  endfacet
  facet normal -0.940881 0.338738 0
    outer loop
      vertex -22.5876 7.33915 -46
      vertex -22.0822 8.74296 -41
      vertex -22.0822 8.74296 -46
    endloop
  endfacet
  facet normal -0.940881 0.338738 0
    outer loop
      vertex -22.0822 8.74296 -41
      vertex -22.5876 7.33915 -46
      vertex -22.5876 7.33915 -41
    endloop
  endfacet
  facet normal -0.960294 0.278991 0
    outer loop
      vertex -23.0039 5.90638 -46
      vertex -22.5876 7.33915 -41
      vertex -22.5876 7.33915 -46
    endloop
  endfacet
  facet normal -0.960294 0.278991 0
    outer loop
      vertex -22.5876 7.33915 -41
      vertex -23.0039 5.90638 -46
      vertex -23.0039 5.90638 -41
    endloop
  endfacet
  facet normal -0.975917 0.218143 0
    outer loop
      vertex -23.3293 4.45031 -46
      vertex -23.0039 5.90638 -41
      vertex -23.0039 5.90638 -46
    endloop
  endfacet
  facet normal -0.975917 0.218143 0
    outer loop
      vertex -23.0039 5.90638 -41
      vertex -23.3293 4.45031 -46
      vertex -23.3293 4.45031 -41
    endloop
  endfacet
  facet normal -0.987688 0.156435 0
    outer loop
      vertex -23.5627 2.97666 -46
      vertex -23.3293 4.45031 -41
      vertex -23.3293 4.45031 -46
    endloop
  endfacet
  facet normal -0.987688 0.156435 0
    outer loop
      vertex -23.3293 4.45031 -41
      vertex -23.5627 2.97666 -46
      vertex -23.5627 2.97666 -41
    endloop
  endfacet
  facet normal -0.995562 0.0941075 0
    outer loop
      vertex -23.7031 1.49127 -46
      vertex -23.5627 2.97666 -41
      vertex -23.5627 2.97666 -46
    endloop
  endfacet
  facet normal -0.995562 0.0941075 0
    outer loop
      vertex -23.5627 2.97666 -41
      vertex -23.7031 1.49127 -46
      vertex -23.7031 1.49127 -41
    endloop
  endfacet
  facet normal -0.999507 0.0314109 0
    outer loop
      vertex -23.75 2.90854e-15 -46
      vertex -23.7031 1.49127 -41
      vertex -23.7031 1.49127 -46
    endloop
  endfacet
  facet normal -0.999507 0.0314109 0
    outer loop
      vertex -23.7031 1.49127 -41
      vertex -23.75 2.90854e-15 -46
      vertex -23.75 2.90854e-15 -41
    endloop
  endfacet
  facet normal -0.999507 -0.0314109 0
    outer loop
      vertex -23.7031 -1.49127 -46
      vertex -23.75 2.90854e-15 -41
      vertex -23.75 2.90854e-15 -46
    endloop
  endfacet
  facet normal -0.999507 -0.0314109 0
    outer loop
      vertex -23.75 2.90854e-15 -41
      vertex -23.7031 -1.49127 -46
      vertex -23.7031 -1.49127 -41
    endloop
  endfacet
  facet normal -0.995562 -0.0941075 0
    outer loop
      vertex -23.5627 -2.97666 -46
      vertex -23.7031 -1.49127 -41
      vertex -23.7031 -1.49127 -46
    endloop
  endfacet
  facet normal -0.995562 -0.0941075 0
    outer loop
      vertex -23.7031 -1.49127 -41
      vertex -23.5627 -2.97666 -46
      vertex -23.5627 -2.97666 -41
    endloop
  endfacet
  facet normal -0.987688 -0.156435 0
    outer loop
      vertex -23.3293 -4.45031 -46
      vertex -23.5627 -2.97666 -41
      vertex -23.5627 -2.97666 -46
    endloop
  endfacet
  facet normal -0.987688 -0.156435 0
    outer loop
      vertex -23.5627 -2.97666 -41
      vertex -23.3293 -4.45031 -46
      vertex -23.3293 -4.45031 -41
    endloop
  endfacet
  facet normal -0.975917 -0.218143 0
    outer loop
      vertex -23.0039 -5.90638 -46
      vertex -23.3293 -4.45031 -41
      vertex -23.3293 -4.45031 -46
    endloop
  endfacet
  facet normal -0.975917 -0.218143 0
    outer loop
      vertex -23.3293 -4.45031 -41
      vertex -23.0039 -5.90638 -46
      vertex -23.0039 -5.90638 -41
    endloop
  endfacet
  facet normal -0.960294 -0.278991 0
    outer loop
      vertex -22.5876 -7.33915 -46
      vertex -23.0039 -5.90638 -41
      vertex -23.0039 -5.90638 -46
    endloop
  endfacet
  facet normal -0.960294 -0.278991 0
    outer loop
      vertex -23.0039 -5.90638 -41
      vertex -22.5876 -7.33915 -46
      vertex -22.5876 -7.33915 -41
    endloop
  endfacet
  facet normal -0.940881 -0.338738 0
    outer loop
      vertex -22.0822 -8.74296 -46
      vertex -22.5876 -7.33915 -41
      vertex -22.5876 -7.33915 -46
    endloop
  endfacet
  facet normal -0.940881 -0.338738 0
    outer loop
      vertex -22.5876 -7.33915 -41
      vertex -22.0822 -8.74296 -46
      vertex -22.0822 -8.74296 -41
    endloop
  endfacet
  facet normal -0.917755 -0.397148 0
    outer loop
      vertex -21.4896 -10.1123 -46
      vertex -22.0822 -8.74296 -41
      vertex -22.0822 -8.74296 -46
    endloop
  endfacet
  facet normal -0.917755 -0.397148 0
    outer loop
      vertex -22.0822 -8.74296 -41
      vertex -21.4896 -10.1123 -46
      vertex -21.4896 -10.1123 -41
    endloop
  endfacet
  facet normal -0.891007 -0.45399 0
    outer loop
      vertex -20.8123 -11.4416 -46
      vertex -21.4896 -10.1123 -41
      vertex -21.4896 -10.1123 -46
    endloop
  endfacet
  facet normal -0.891007 -0.45399 0
    outer loop
      vertex -21.4896 -10.1123 -41
      vertex -20.8123 -11.4416 -46
      vertex -20.8123 -11.4416 -41
    endloop
  endfacet
  facet normal -0.860742 -0.509042 0
    outer loop
      vertex -20.0528 -12.7259 -46
      vertex -20.8123 -11.4416 -41
      vertex -20.8123 -11.4416 -46
    endloop
  endfacet
  facet normal -0.860742 -0.509042 0
    outer loop
      vertex -20.8123 -11.4416 -41
      vertex -20.0528 -12.7259 -46
      vertex -20.0528 -12.7259 -41
    endloop
  endfacet
  facet normal -0.827081 -0.562083 0
    outer loop
      vertex -19.2142 -13.9599 -46
      vertex -20.0528 -12.7259 -41
      vertex -20.0528 -12.7259 -46
    endloop
  endfacet
  facet normal -0.827081 -0.562083 0
    outer loop
      vertex -20.0528 -12.7259 -41
      vertex -19.2142 -13.9599 -46
      vertex -19.2142 -13.9599 -41
    endloop
  endfacet
  facet normal -0.790155 -0.612907 0
    outer loop
      vertex -18.2997 -15.1388 -46
      vertex -19.2142 -13.9599 -41
      vertex -19.2142 -13.9599 -46
    endloop
  endfacet
  facet normal -0.790155 -0.612907 0
    outer loop
      vertex -19.2142 -13.9599 -41
      vertex -18.2997 -15.1388 -46
      vertex -18.2997 -15.1388 -41
    endloop
  endfacet
  facet normal -0.750111 -0.661312 0
    outer loop
      vertex -17.313 -16.258 -46
      vertex -18.2997 -15.1388 -41
      vertex -18.2997 -15.1388 -46
    endloop
  endfacet
  facet normal -0.750111 -0.661312 0
    outer loop
      vertex -18.2997 -15.1388 -41
      vertex -17.313 -16.258 -46
      vertex -17.313 -16.258 -41
    endloop
  endfacet
  facet normal -0.707107 -0.707107 0
    outer loop
      vertex -16.258 -17.313 -46
      vertex -17.313 -16.258 -41
      vertex -17.313 -16.258 -46
    endloop
  endfacet
  facet normal -0.707107 -0.707107 0
    outer loop
      vertex -17.313 -16.258 -41
      vertex -16.258 -17.313 -46
      vertex -16.258 -17.313 -41
    endloop
  endfacet
  facet normal -0.661312 -0.750111 0
    outer loop
      vertex -16.258 -17.313 -46
      vertex -15.1388 -18.2997 -41
      vertex -16.258 -17.313 -41
    endloop
  endfacet
  facet normal -0.661312 -0.750111 -0
    outer loop
      vertex -15.1388 -18.2997 -41
      vertex -16.258 -17.313 -46
      vertex -15.1388 -18.2997 -46
    endloop
  endfacet
  facet normal -0.612907 -0.790155 0
    outer loop
      vertex -15.1388 -18.2997 -46
      vertex -13.9599 -19.2142 -41
      vertex -15.1388 -18.2997 -41
    endloop
  endfacet
  facet normal -0.612907 -0.790155 -0
    outer loop
      vertex -13.9599 -19.2142 -41
      vertex -15.1388 -18.2997 -46
      vertex -13.9599 -19.2142 -46
    endloop
  endfacet
  facet normal -0.562083 -0.827081 0
    outer loop
      vertex -13.9599 -19.2142 -46
      vertex -12.7259 -20.0528 -41
      vertex -13.9599 -19.2142 -41
    endloop
  endfacet
  facet normal -0.562083 -0.827081 -0
    outer loop
      vertex -12.7259 -20.0528 -41
      vertex -13.9599 -19.2142 -46
      vertex -12.7259 -20.0528 -46
    endloop
  endfacet
  facet normal -0.509042 -0.860742 0
    outer loop
      vertex -12.7259 -20.0528 -46
      vertex -11.4416 -20.8123 -41
      vertex -12.7259 -20.0528 -41
    endloop
  endfacet
  facet normal -0.509042 -0.860742 -0
    outer loop
      vertex -11.4416 -20.8123 -41
      vertex -12.7259 -20.0528 -46
      vertex -11.4416 -20.8123 -46
    endloop
  endfacet
  facet normal -0.45399 -0.891007 0
    outer loop
      vertex -11.4416 -20.8123 -46
      vertex -10.1123 -21.4896 -41
      vertex -11.4416 -20.8123 -41
    endloop
  endfacet
  facet normal -0.45399 -0.891007 -0
    outer loop
      vertex -10.1123 -21.4896 -41
      vertex -11.4416 -20.8123 -46
      vertex -10.1123 -21.4896 -46
    endloop
  endfacet
  facet normal -0.397148 -0.917755 0
    outer loop
      vertex -10.1123 -21.4896 -46
      vertex -8.74296 -22.0822 -41
      vertex -10.1123 -21.4896 -41
    endloop
  endfacet
  facet normal -0.397148 -0.917755 -0
    outer loop
      vertex -8.74296 -22.0822 -41
      vertex -10.1123 -21.4896 -46
      vertex -8.74296 -22.0822 -46
    endloop
  endfacet
  facet normal -0.338738 -0.940881 0
    outer loop
      vertex -8.74296 -22.0822 -46
      vertex -7.33915 -22.5876 -41
      vertex -8.74296 -22.0822 -41
    endloop
  endfacet
  facet normal -0.338738 -0.940881 -0
    outer loop
      vertex -7.33915 -22.5876 -41
      vertex -8.74296 -22.0822 -46
      vertex -7.33915 -22.5876 -46
    endloop
  endfacet
  facet normal -0.278991 -0.960294 0
    outer loop
      vertex -7.33915 -22.5876 -46
      vertex -5.90638 -23.0039 -41
      vertex -7.33915 -22.5876 -41
    endloop
  endfacet
  facet normal -0.278991 -0.960294 -0
    outer loop
      vertex -5.90638 -23.0039 -41
      vertex -7.33915 -22.5876 -46
      vertex -5.90638 -23.0039 -46
    endloop
  endfacet
  facet normal -0.218143 -0.975917 0
    outer loop
      vertex -5.90638 -23.0039 -46
      vertex -4.45031 -23.3293 -41
      vertex -5.90638 -23.0039 -41
    endloop
  endfacet
  facet normal -0.218143 -0.975917 -0
    outer loop
      vertex -4.45031 -23.3293 -41
      vertex -5.90638 -23.0039 -46
      vertex -4.45031 -23.3293 -46
    endloop
  endfacet
  facet normal -0.156435 -0.987688 0
    outer loop
      vertex -4.45031 -23.3293 -46
      vertex -2.97666 -23.5627 -41
      vertex -4.45031 -23.3293 -41
    endloop
  endfacet
  facet normal -0.156435 -0.987688 -0
    outer loop
      vertex -2.97666 -23.5627 -41
      vertex -4.45031 -23.3293 -46
      vertex -2.97666 -23.5627 -46
    endloop
  endfacet
  facet normal -0.0941075 -0.995562 0
    outer loop
      vertex -2.97666 -23.5627 -46
      vertex -1.49127 -23.7031 -41
      vertex -2.97666 -23.5627 -41
    endloop
  endfacet
  facet normal -0.0941075 -0.995562 -0
    outer loop
      vertex -1.49127 -23.7031 -41
      vertex -2.97666 -23.5627 -46
      vertex -1.49127 -23.7031 -46
    endloop
  endfacet
  facet normal -0.0314109 -0.999507 0
    outer loop
      vertex -1.49127 -23.7031 -46
      vertex -4.3628e-15 -23.75 -41
      vertex -1.49127 -23.7031 -41
    endloop
  endfacet
  facet normal -0.0314109 -0.999507 -0
    outer loop
      vertex -4.3628e-15 -23.75 -41
      vertex -1.49127 -23.7031 -46
      vertex -4.3628e-15 -23.75 -46
    endloop
  endfacet
  facet normal 0.0314109 -0.999507 0
    outer loop
      vertex -4.3628e-15 -23.75 -46
      vertex 1.49127 -23.7031 -41
      vertex -4.3628e-15 -23.75 -41
    endloop
  endfacet
  facet normal 0.0314109 -0.999507 0
    outer loop
      vertex 1.49127 -23.7031 -41
      vertex -4.3628e-15 -23.75 -46
      vertex 1.49127 -23.7031 -46
    endloop
  endfacet
  facet normal 0.0941075 -0.995562 0
    outer loop
      vertex 1.49127 -23.7031 -46
      vertex 2.97666 -23.5627 -41
      vertex 1.49127 -23.7031 -41
    endloop
  endfacet
  facet normal 0.0941075 -0.995562 0
    outer loop
      vertex 2.97666 -23.5627 -41
      vertex 1.49127 -23.7031 -46
      vertex 2.97666 -23.5627 -46
    endloop
  endfacet
  facet normal 0.156435 -0.987688 0
    outer loop
      vertex 2.97666 -23.5627 -46
      vertex 4.45031 -23.3293 -41
      vertex 2.97666 -23.5627 -41
    endloop
  endfacet
  facet normal 0.156435 -0.987688 0
    outer loop
      vertex 4.45031 -23.3293 -41
      vertex 2.97666 -23.5627 -46
      vertex 4.45031 -23.3293 -46
    endloop
  endfacet
  facet normal 0.218143 -0.975917 0
    outer loop
      vertex 4.45031 -23.3293 -46
      vertex 5.90638 -23.0039 -41
      vertex 4.45031 -23.3293 -41
    endloop
  endfacet
  facet normal 0.218143 -0.975917 0
    outer loop
      vertex 5.90638 -23.0039 -41
      vertex 4.45031 -23.3293 -46
      vertex 5.90638 -23.0039 -46
    endloop
  endfacet
  facet normal 0.278991 -0.960294 0
    outer loop
      vertex 5.90638 -23.0039 -46
      vertex 7.33915 -22.5876 -41
      vertex 5.90638 -23.0039 -41
    endloop
  endfacet
  facet normal 0.278991 -0.960294 0
    outer loop
      vertex 7.33915 -22.5876 -41
      vertex 5.90638 -23.0039 -46
      vertex 7.33915 -22.5876 -46
    endloop
  endfacet
  facet normal 0.338738 -0.940881 0
    outer loop
      vertex 7.33915 -22.5876 -46
      vertex 8.74296 -22.0822 -41
      vertex 7.33915 -22.5876 -41
    endloop
  endfacet
  facet normal 0.338738 -0.940881 0
    outer loop
      vertex 8.74296 -22.0822 -41
      vertex 7.33915 -22.5876 -46
      vertex 8.74296 -22.0822 -46
    endloop
  endfacet
  facet normal 0.397148 -0.917755 0
    outer loop
      vertex 8.74296 -22.0822 -46
      vertex 10.1123 -21.4896 -41
      vertex 8.74296 -22.0822 -41
    endloop
  endfacet
  facet normal 0.397148 -0.917755 0
    outer loop
      vertex 10.1123 -21.4896 -41
      vertex 8.74296 -22.0822 -46
      vertex 10.1123 -21.4896 -46
    endloop
  endfacet
  facet normal 0.45399 -0.891007 0
    outer loop
      vertex 10.1123 -21.4896 -46
      vertex 11.4416 -20.8123 -41
      vertex 10.1123 -21.4896 -41
    endloop
  endfacet
  facet normal 0.45399 -0.891007 0
    outer loop
      vertex 11.4416 -20.8123 -41
      vertex 10.1123 -21.4896 -46
      vertex 11.4416 -20.8123 -46
    endloop
  endfacet
  facet normal 0.509042 -0.860742 0
    outer loop
      vertex 11.4416 -20.8123 -46
      vertex 12.7259 -20.0528 -41
      vertex 11.4416 -20.8123 -41
    endloop
  endfacet
  facet normal 0.509042 -0.860742 0
    outer loop
      vertex 12.7259 -20.0528 -41
      vertex 11.4416 -20.8123 -46
      vertex 12.7259 -20.0528 -46
    endloop
  endfacet
  facet normal 0.562083 -0.827081 0
    outer loop
      vertex 12.7259 -20.0528 -46
      vertex 13.9599 -19.2142 -41
      vertex 12.7259 -20.0528 -41
    endloop
  endfacet
  facet normal 0.562083 -0.827081 0
    outer loop
      vertex 13.9599 -19.2142 -41
      vertex 12.7259 -20.0528 -46
      vertex 13.9599 -19.2142 -46
    endloop
  endfacet
  facet normal 0.612907 -0.790155 0
    outer loop
      vertex 13.9599 -19.2142 -46
      vertex 15.1388 -18.2997 -41
      vertex 13.9599 -19.2142 -41
    endloop
  endfacet
  facet normal 0.612907 -0.790155 0
    outer loop
      vertex 15.1388 -18.2997 -41
      vertex 13.9599 -19.2142 -46
      vertex 15.1388 -18.2997 -46
    endloop
  endfacet
  facet normal 0.661312 -0.750111 0
    outer loop
      vertex 15.1388 -18.2997 -46
      vertex 16.258 -17.313 -41
      vertex 15.1388 -18.2997 -41
    endloop
  endfacet
  facet normal 0.661312 -0.750111 0
    outer loop
      vertex 16.258 -17.313 -41
      vertex 15.1388 -18.2997 -46
      vertex 16.258 -17.313 -46
    endloop
  endfacet
  facet normal 0.707107 -0.707107 0
    outer loop
      vertex 16.258 -17.313 -41
      vertex 17.313 -16.258 -46
      vertex 17.313 -16.258 -41
    endloop
  endfacet
  facet normal 0.707107 -0.707107 0
    outer loop
      vertex 17.313 -16.258 -46
      vertex 16.258 -17.313 -41
      vertex 16.258 -17.313 -46
    endloop
  endfacet
  facet normal 0.750111 -0.661312 0
    outer loop
      vertex 17.313 -16.258 -41
      vertex 18.2997 -15.1388 -46
      vertex 18.2997 -15.1388 -41
    endloop
  endfacet
  facet normal 0.750111 -0.661312 0
    outer loop
      vertex 18.2997 -15.1388 -46
      vertex 17.313 -16.258 -41
      vertex 17.313 -16.258 -46
    endloop
  endfacet
  facet normal 0.790155 -0.612907 0
    outer loop
      vertex 18.2997 -15.1388 -41
      vertex 19.2142 -13.9599 -46
      vertex 19.2142 -13.9599 -41
    endloop
  endfacet
  facet normal 0.790155 -0.612907 0
    outer loop
      vertex 19.2142 -13.9599 -46
      vertex 18.2997 -15.1388 -41
      vertex 18.2997 -15.1388 -46
    endloop
  endfacet
  facet normal 0.827081 -0.562083 0
    outer loop
      vertex 19.2142 -13.9599 -41
      vertex 20.0528 -12.7259 -46
      vertex 20.0528 -12.7259 -41
    endloop
  endfacet
  facet normal 0.827081 -0.562083 0
    outer loop
      vertex 20.0528 -12.7259 -46
      vertex 19.2142 -13.9599 -41
      vertex 19.2142 -13.9599 -46
    endloop
  endfacet
  facet normal 0.860742 -0.509042 0
    outer loop
      vertex 20.0528 -12.7259 -41
      vertex 20.8123 -11.4416 -46
      vertex 20.8123 -11.4416 -41
    endloop
  endfacet
  facet normal 0.860742 -0.509042 0
    outer loop
      vertex 20.8123 -11.4416 -46
      vertex 20.0528 -12.7259 -41
      vertex 20.0528 -12.7259 -46
    endloop
  endfacet
  facet normal 0.891007 -0.45399 0
    outer loop
      vertex 20.8123 -11.4416 -41
      vertex 21.4896 -10.1123 -46
      vertex 21.4896 -10.1123 -41
    endloop
  endfacet
  facet normal 0.891007 -0.45399 0
    outer loop
      vertex 21.4896 -10.1123 -46
      vertex 20.8123 -11.4416 -41
      vertex 20.8123 -11.4416 -46
    endloop
  endfacet
  facet normal 0.917755 -0.397148 0
    outer loop
      vertex 21.4896 -10.1123 -41
      vertex 22.0822 -8.74296 -46
      vertex 22.0822 -8.74296 -41
    endloop
  endfacet
  facet normal 0.917755 -0.397148 0
    outer loop
      vertex 22.0822 -8.74296 -46
      vertex 21.4896 -10.1123 -41
      vertex 21.4896 -10.1123 -46
    endloop
  endfacet
  facet normal 0.940881 -0.338738 0
    outer loop
      vertex 22.0822 -8.74296 -41
      vertex 22.5876 -7.33915 -46
      vertex 22.5876 -7.33915 -41
    endloop
  endfacet
  facet normal 0.940881 -0.338738 0
    outer loop
      vertex 22.5876 -7.33915 -46
      vertex 22.0822 -8.74296 -41
      vertex 22.0822 -8.74296 -46
    endloop
  endfacet
  facet normal 0.960294 -0.278991 0
    outer loop
      vertex 22.5876 -7.33915 -41
      vertex 23.0039 -5.90638 -46
      vertex 23.0039 -5.90638 -41
    endloop
  endfacet
  facet normal 0.960294 -0.278991 0
    outer loop
      vertex 23.0039 -5.90638 -46
      vertex 22.5876 -7.33915 -41
      vertex 22.5876 -7.33915 -46
    endloop
  endfacet
  facet normal 0.975917 -0.218143 0
    outer loop
      vertex 23.0039 -5.90638 -41
      vertex 23.3293 -4.45031 -46
      vertex 23.3293 -4.45031 -41
    endloop
  endfacet
  facet normal 0.975917 -0.218143 0
    outer loop
      vertex 23.3293 -4.45031 -46
      vertex 23.0039 -5.90638 -41
      vertex 23.0039 -5.90638 -46
    endloop
  endfacet
  facet normal 0.987688 -0.156435 0
    outer loop
      vertex 23.3293 -4.45031 -41
      vertex 23.5627 -2.97666 -46
      vertex 23.5627 -2.97666 -41
    endloop
  endfacet
  facet normal 0.987688 -0.156435 0
    outer loop
      vertex 23.5627 -2.97666 -46
      vertex 23.3293 -4.45031 -41
      vertex 23.3293 -4.45031 -46
    endloop
  endfacet
  facet normal 0.995562 -0.0941075 0
    outer loop
      vertex 23.5627 -2.97666 -41
      vertex 23.7031 -1.49127 -46
      vertex 23.7031 -1.49127 -41
    endloop
  endfacet
  facet normal 0.995562 -0.0941075 0
    outer loop
      vertex 23.7031 -1.49127 -46
      vertex 23.5627 -2.97666 -41
      vertex 23.5627 -2.97666 -46
    endloop
  endfacet
  facet normal 0.999507 -0.0314109 0
    outer loop
      vertex 23.7031 -1.49127 -41
      vertex 23.75 0 -46
      vertex 23.75 0 -41
    endloop
  endfacet
  facet normal 0.999507 -0.0314109 0
    outer loop
      vertex 23.75 0 -46
      vertex 23.7031 -1.49127 -41
      vertex 23.7031 -1.49127 -46
    endloop
  endfacet
  facet normal 0 0 -1
    outer loop
      vertex 23.7031 -1.49127 -46
      vertex 23.7031 1.49127 -46
      vertex 23.75 0 -46
    endloop
  endfacet
  facet normal 0 0 -1
    outer loop
      vertex 23.5627 -2.97666 -46
      vertex 23.7031 1.49127 -46
      vertex 23.7031 -1.49127 -46
    endloop
  endfacet
  facet normal 0 0 -1
    outer loop
      vertex 23.5627 -2.97666 -46
      vertex 23.5627 2.97666 -46
      vertex 23.7031 1.49127 -46
    endloop
  endfacet
  facet normal 0 0 -1
    outer loop
      vertex 23.3293 -4.45031 -46
      vertex 23.5627 2.97666 -46
      vertex 23.5627 -2.97666 -46
    endloop
  endfacet
  facet normal 0 0 -1
    outer loop
      vertex 23.3293 -4.45031 -46
      vertex 23.3293 4.45031 -46
      vertex 23.5627 2.97666 -46
    endloop
  endfacet
  facet normal 0 0 -1
    outer loop
      vertex 23.0039 -5.90638 -46
      vertex 23.3293 4.45031 -46
      vertex 23.3293 -4.45031 -46
    endloop
  endfacet
  facet normal 0 0 -1
    outer loop
      vertex 23.0039 -5.90638 -46
      vertex 23.0039 5.90638 -46
      vertex 23.3293 4.45031 -46
    endloop
  endfacet
  facet normal 0 0 -1
    outer loop
      vertex 22.5876 -7.33915 -46
      vertex 23.0039 5.90638 -46
      vertex 23.0039 -5.90638 -46
    endloop
  endfacet
  facet normal 0 0 -1
    outer loop
      vertex 22.5876 -7.33915 -46
      vertex 22.5876 7.33915 -46
      vertex 23.0039 5.90638 -46
    endloop
  endfacet
  facet normal 0 0 -1
    outer loop
      vertex 22.0822 -8.74296 -46
      vertex 22.5876 7.33915 -46
      vertex 22.5876 -7.33915 -46
    endloop
  endfacet
  facet normal 0 0 -1
    outer loop
      vertex 22.0822 -8.74296 -46
      vertex 22.0822 8.74296 -46
      vertex 22.5876 7.33915 -46
    endloop
  endfacet
  facet normal 0 0 -1
    outer loop
      vertex 21.4896 -10.1123 -46
      vertex 22.0822 8.74296 -46
      vertex 22.0822 -8.74296 -46
    endloop
  endfacet
  facet normal 0 0 -1
    outer loop
      vertex 21.4896 -10.1123 -46
      vertex 21.4896 10.1123 -46
      vertex 22.0822 8.74296 -46
    endloop
  endfacet
  facet normal 0 0 -1
    outer loop
      vertex 20.8123 -11.4416 -46
      vertex 21.4896 10.1123 -46
      vertex 21.4896 -10.1123 -46
    endloop
  endfacet
  facet normal 0 0 -1
    outer loop
      vertex 20.8123 -11.4416 -46
      vertex 20.8123 11.4416 -46
      vertex 21.4896 10.1123 -46
    endloop
  endfacet
  facet normal 0 0 -1
    outer loop
      vertex 20.0528 -12.7259 -46
      vertex 20.8123 11.4416 -46
      vertex 20.8123 -11.4416 -46
    endloop
  endfacet
  facet normal 0 0 -1
    outer loop
      vertex 20.0528 -12.7259 -46
      vertex 20.0528 12.7259 -46
      vertex 20.8123 11.4416 -46
    endloop
  endfacet
  facet normal 0 0 -1
    outer loop
      vertex 19.2142 -13.9599 -46
      vertex 20.0528 12.7259 -46
      vertex 20.0528 -12.7259 -46
    endloop
  endfacet
  facet normal 0 0 -1
    outer loop
      vertex 19.2142 -13.9599 -46
      vertex 19.2142 13.9599 -46
      vertex 20.0528 12.7259 -46
    endloop
  endfacet
  facet normal 0 0 -1
    outer loop
      vertex 18.2997 -15.1388 -46
      vertex 19.2142 13.9599 -46
      vertex 19.2142 -13.9599 -46
    endloop
  endfacet
  facet normal 0 0 -1
    outer loop
      vertex 18.2997 -15.1388 -46
      vertex 18.2997 15.1388 -46
      vertex 19.2142 13.9599 -46
    endloop
  endfacet
  facet normal 0 0 -1
    outer loop
      vertex 17.313 -16.258 -46
      vertex 18.2997 15.1388 -46
      vertex 18.2997 -15.1388 -46
    endloop
  endfacet
  facet normal 0 0 -1
    outer loop
      vertex 17.313 -16.258 -46
      vertex 17.313 16.258 -46
      vertex 18.2997 15.1388 -46
    endloop
  endfacet
  facet normal 0 0 -1
    outer loop
      vertex 16.258 -17.313 -46
      vertex 17.313 16.258 -46
      vertex 17.313 -16.258 -46
    endloop
  endfacet
  facet normal 0 0 -1
    outer loop
      vertex 16.258 -17.313 -46
      vertex 16.258 17.313 -46
      vertex 17.313 16.258 -46
    endloop
  endfacet
  facet normal 0 0 -1
    outer loop
      vertex 15.1388 -18.2997 -46
      vertex 16.258 17.313 -46
      vertex 16.258 -17.313 -46
    endloop
  endfacet
  facet normal 0 0 -1
    outer loop
      vertex 15.1388 -18.2997 -46
      vertex 15.1388 18.2997 -46
      vertex 16.258 17.313 -46
    endloop
  endfacet
  facet normal 0 0 -1
    outer loop
      vertex 13.9599 -19.2142 -46
      vertex 15.1388 18.2997 -46
      vertex 15.1388 -18.2997 -46
    endloop
  endfacet
  facet normal 0 0 -1
    outer loop
      vertex 13.9599 -19.2142 -46
      vertex 13.9599 19.2142 -46
      vertex 15.1388 18.2997 -46
    endloop
  endfacet
  facet normal 0 0 -1
    outer loop
      vertex 12.7259 -20.0528 -46
      vertex 13.9599 19.2142 -46
      vertex 13.9599 -19.2142 -46
    endloop
  endfacet
  facet normal 0 0 -1
    outer loop
      vertex 12.7259 -20.0528 -46
      vertex 12.7259 20.0528 -46
      vertex 13.9599 19.2142 -46
    endloop
  endfacet
  facet normal 0 0 -1
    outer loop
      vertex 11.4416 -20.8123 -46
      vertex 12.7259 20.0528 -46
      vertex 12.7259 -20.0528 -46
    endloop
  endfacet
  facet normal 0 0 -1
    outer loop
      vertex 11.4416 -20.8123 -46
      vertex 11.4416 20.8123 -46
      vertex 12.7259 20.0528 -46
    endloop
  endfacet
  facet normal 0 0 -1
    outer loop
      vertex 10.1123 -21.4896 -46
      vertex 11.4416 20.8123 -46
      vertex 11.4416 -20.8123 -46
    endloop
  endfacet
  facet normal 0 0 -1
    outer loop
      vertex 10.1123 -21.4896 -46
      vertex 10.1123 21.4896 -46
      vertex 11.4416 20.8123 -46
    endloop
  endfacet
  facet normal 0 0 -1
    outer loop
      vertex 8.74296 -22.0822 -46
      vertex 10.1123 21.4896 -46
      vertex 10.1123 -21.4896 -46
    endloop
  endfacet
  facet normal 0 0 -1
    outer loop
      vertex 8.74296 -22.0822 -46
      vertex 8.74296 22.0822 -46
      vertex 10.1123 21.4896 -46
    endloop
  endfacet
  facet normal 0 0 -1
    outer loop
      vertex 7.33915 -22.5876 -46
      vertex 8.74296 22.0822 -46
      vertex 8.74296 -22.0822 -46
    endloop
  endfacet
  facet normal 0 0 -1
    outer loop
      vertex 7.33915 -22.5876 -46
      vertex 7.33915 22.5876 -46
      vertex 8.74296 22.0822 -46
    endloop
  endfacet
  facet normal 0 0 -1
    outer loop
      vertex 5.90638 -23.0039 -46
      vertex 7.33915 22.5876 -46
      vertex 7.33915 -22.5876 -46
    endloop
  endfacet
  facet normal 0 0 -1
    outer loop
      vertex 5.90638 -23.0039 -46
      vertex 5.90638 23.0039 -46
      vertex 7.33915 22.5876 -46
    endloop
  endfacet
  facet normal 0 0 -1
    outer loop
      vertex 4.45031 -23.3293 -46
      vertex 5.90638 23.0039 -46
      vertex 5.90638 -23.0039 -46
    endloop
  endfacet
  facet normal 0 0 -1
    outer loop
      vertex 4.45031 -23.3293 -46
      vertex 4.45031 23.3293 -46
      vertex 5.90638 23.0039 -46
    endloop
  endfacet
  facet normal 0 0 -1
    outer loop
      vertex 2.97666 -23.5627 -46
      vertex 4.45031 23.3293 -46
      vertex 4.45031 -23.3293 -46
    endloop
  endfacet
  facet normal 0 0 -1
    outer loop
      vertex 2.97666 -23.5627 -46
      vertex 2.97666 23.5627 -46
      vertex 4.45031 23.3293 -46
    endloop
  endfacet
  facet normal 0 0 -1
    outer loop
      vertex 1.49127 -23.7031 -46
      vertex 2.97666 23.5627 -46
      vertex 2.97666 -23.5627 -46
    endloop
  endfacet
  facet normal 0 0 -1
    outer loop
      vertex 1.49127 -23.7031 -46
      vertex 1.49127 23.7031 -46
      vertex 2.97666 23.5627 -46
    endloop
  endfacet
  facet normal 0 0 -1
    outer loop
      vertex 1.49127 -23.7031 -46
      vertex 1.45427e-15 23.75 -46
      vertex 1.49127 23.7031 -46
    endloop
  endfacet
  facet normal 0 0 -1
    outer loop
      vertex -4.3628e-15 -23.75 -46
      vertex 1.45427e-15 23.75 -46
      vertex 1.49127 -23.7031 -46
    endloop
  endfacet
  facet normal 0 0 -1
    outer loop
      vertex -1.49127 -23.7031 -46
      vertex 1.45427e-15 23.75 -46
      vertex -4.3628e-15 -23.75 -46
    endloop
  endfacet
  facet normal 0 0 -1
    outer loop
      vertex -1.49127 -23.7031 -46
      vertex -1.49127 23.7031 -46
      vertex 1.45427e-15 23.75 -46
    endloop
  endfacet
  facet normal 0 0 -1
    outer loop
      vertex -2.97666 -23.5627 -46
      vertex -1.49127 23.7031 -46
      vertex -1.49127 -23.7031 -46
    endloop
  endfacet
  facet normal 0 0 -1
    outer loop
      vertex -2.97666 -23.5627 -46
      vertex -2.97666 23.5627 -46
      vertex -1.49127 23.7031 -46
    endloop
  endfacet
  facet normal 0 0 -1
    outer loop
      vertex -4.45031 -23.3293 -46
      vertex -2.97666 23.5627 -46
      vertex -2.97666 -23.5627 -46
    endloop
  endfacet
  facet normal 0 0 -1
    outer loop
      vertex -4.45031 -23.3293 -46
      vertex -4.45031 23.3293 -46
      vertex -2.97666 23.5627 -46
    endloop
  endfacet
  facet normal 0 0 -1
    outer loop
      vertex -5.90638 -23.0039 -46
      vertex -4.45031 23.3293 -46
      vertex -4.45031 -23.3293 -46
    endloop
  endfacet
  facet normal 0 0 -1
    outer loop
      vertex -5.90638 -23.0039 -46
      vertex -5.90638 23.0039 -46
      vertex -4.45031 23.3293 -46
    endloop
  endfacet
  facet normal 0 0 -1
    outer loop
      vertex -7.33915 -22.5876 -46
      vertex -5.90638 23.0039 -46
      vertex -5.90638 -23.0039 -46
    endloop
  endfacet
  facet normal 0 0 -1
    outer loop
      vertex -7.33915 -22.5876 -46
      vertex -7.33915 22.5876 -46
      vertex -5.90638 23.0039 -46
    endloop
  endfacet
  facet normal 0 0 -1
    outer loop
      vertex -8.74296 -22.0822 -46
      vertex -7.33915 22.5876 -46
      vertex -7.33915 -22.5876 -46
    endloop
  endfacet
  facet normal 0 0 -1
    outer loop
      vertex -8.74296 -22.0822 -46
      vertex -8.74296 22.0822 -46
      vertex -7.33915 22.5876 -46
    endloop
  endfacet
  facet normal 0 0 -1
    outer loop
      vertex -10.1123 -21.4896 -46
      vertex -8.74296 22.0822 -46
      vertex -8.74296 -22.0822 -46
    endloop
  endfacet
  facet normal 0 0 -1
    outer loop
      vertex -10.1123 -21.4896 -46
      vertex -10.1123 21.4896 -46
      vertex -8.74296 22.0822 -46
    endloop
  endfacet
  facet normal 0 0 -1
    outer loop
      vertex -11.4416 -20.8123 -46
      vertex -10.1123 21.4896 -46
      vertex -10.1123 -21.4896 -46
    endloop
  endfacet
  facet normal 0 0 -1
    outer loop
      vertex -11.4416 -20.8123 -46
      vertex -11.4416 20.8123 -46
      vertex -10.1123 21.4896 -46
    endloop
  endfacet
  facet normal 0 0 -1
    outer loop
      vertex -12.7259 -20.0528 -46
      vertex -11.4416 20.8123 -46
      vertex -11.4416 -20.8123 -46
    endloop
  endfacet
  facet normal 0 0 -1
    outer loop
      vertex -12.7259 -20.0528 -46
      vertex -12.7259 20.0528 -46
      vertex -11.4416 20.8123 -46
    endloop
  endfacet
  facet normal 0 0 -1
    outer loop
      vertex -13.9599 -19.2142 -46
      vertex -12.7259 20.0528 -46
      vertex -12.7259 -20.0528 -46
    endloop
  endfacet
  facet normal 0 0 -1
    outer loop
      vertex -13.9599 -19.2142 -46
      vertex -13.9599 19.2142 -46
      vertex -12.7259 20.0528 -46
    endloop
  endfacet
  facet normal 0 0 -1
    outer loop
      vertex -15.1388 -18.2997 -46
      vertex -13.9599 19.2142 -46
      vertex -13.9599 -19.2142 -46
    endloop
  endfacet
  facet normal 0 0 -1
    outer loop
      vertex -15.1388 -18.2997 -46
      vertex -15.1388 18.2997 -46
      vertex -13.9599 19.2142 -46
    endloop
  endfacet
  facet normal 0 0 -1
    outer loop
      vertex -16.258 -17.313 -46
      vertex -15.1388 18.2997 -46
      vertex -15.1388 -18.2997 -46
    endloop
  endfacet
  facet normal 0 0 -1
    outer loop
      vertex -16.258 -17.313 -46
      vertex -16.258 17.313 -46
      vertex -15.1388 18.2997 -46
    endloop
  endfacet
  facet normal 0 0 -1
    outer loop
      vertex -17.313 -16.258 -46
      vertex -16.258 17.313 -46
      vertex -16.258 -17.313 -46
    endloop
  endfacet
  facet normal 0 0 -1
    outer loop
      vertex -17.313 -16.258 -46
      vertex -17.313 16.258 -46
      vertex -16.258 17.313 -46
    endloop
  endfacet
  facet normal 0 0 -1
    outer loop
      vertex -18.2997 -15.1388 -46
      vertex -17.313 16.258 -46
      vertex -17.313 -16.258 -46
    endloop
  endfacet
  facet normal 0 0 -1
    outer loop
      vertex -18.2997 -15.1388 -46
      vertex -18.2997 15.1388 -46
      vertex -17.313 16.258 -46
    endloop
  endfacet
  facet normal 0 0 -1
    outer loop
      vertex -19.2142 -13.9599 -46
      vertex -18.2997 15.1388 -46
      vertex -18.2997 -15.1388 -46
    endloop
  endfacet
  facet normal 0 0 -1
    outer loop
      vertex -19.2142 -13.9599 -46
      vertex -19.2142 13.9599 -46
      vertex -18.2997 15.1388 -46
    endloop
  endfacet
  facet normal 0 0 -1
    outer loop
      vertex -20.0528 -12.7259 -46
      vertex -19.2142 13.9599 -46
      vertex -19.2142 -13.9599 -46
    endloop
  endfacet
  facet normal 0 0 -1
    outer loop
      vertex -20.0528 -12.7259 -46
      vertex -20.0528 12.7259 -46
      vertex -19.2142 13.9599 -46
    endloop
  endfacet
  facet normal 0 0 -1
    outer loop
      vertex -20.8123 -11.4416 -46
      vertex -20.0528 12.7259 -46
      vertex -20.0528 -12.7259 -46
    endloop
  endfacet
  facet normal 0 0 -1
    outer loop
      vertex -20.8123 -11.4416 -46
      vertex -20.8123 11.4416 -46
      vertex -20.0528 12.7259 -46
    endloop
  endfacet
  facet normal 0 0 -1
    outer loop
      vertex -21.4896 -10.1123 -46
      vertex -20.8123 11.4416 -46
      vertex -20.8123 -11.4416 -46
    endloop
  endfacet
  facet normal 0 0 -1
    outer loop
      vertex -21.4896 -10.1123 -46
      vertex -21.4896 10.1123 -46
      vertex -20.8123 11.4416 -46
    endloop
  endfacet
  facet normal 0 0 -1
    outer loop
      vertex -22.0822 -8.74296 -46
      vertex -21.4896 10.1123 -46
      vertex -21.4896 -10.1123 -46
    endloop
  endfacet
  facet normal 0 0 -1
    outer loop
      vertex -22.0822 -8.74296 -46
      vertex -22.0822 8.74296 -46
      vertex -21.4896 10.1123 -46
    endloop
  endfacet
  facet normal 0 0 -1
    outer loop
      vertex -22.5876 -7.33915 -46
      vertex -22.0822 8.74296 -46
      vertex -22.0822 -8.74296 -46
    endloop
  endfacet
  facet normal 0 0 -1
    outer loop
      vertex -22.5876 -7.33915 -46
      vertex -22.5876 7.33915 -46
      vertex -22.0822 8.74296 -46
    endloop
  endfacet
  facet normal 0 0 -1
    outer loop
      vertex -23.0039 -5.90638 -46
      vertex -22.5876 7.33915 -46
      vertex -22.5876 -7.33915 -46
    endloop
  endfacet
  facet normal 0 0 -1
    outer loop
      vertex -23.0039 -5.90638 -46
      vertex -23.0039 5.90638 -46
      vertex -22.5876 7.33915 -46
    endloop
  endfacet
  facet normal 0 0 -1
    outer loop
      vertex -23.3293 -4.45031 -46
      vertex -23.0039 5.90638 -46
      vertex -23.0039 -5.90638 -46
    endloop
  endfacet
  facet normal 0 0 -1
    outer loop
      vertex -23.3293 -4.45031 -46
      vertex -23.3293 4.45031 -46
      vertex -23.0039 5.90638 -46
    endloop
  endfacet
  facet normal 0 0 -1
    outer loop
      vertex -23.5627 -2.97666 -46
      vertex -23.3293 4.45031 -46
      vertex -23.3293 -4.45031 -46
    endloop
  endfacet
  facet normal 0 0 -1
    outer loop
      vertex -23.5627 -2.97666 -46
      vertex -23.5627 2.97666 -46
      vertex -23.3293 4.45031 -46
    endloop
  endfacet
  facet normal 0 0 -1
    outer loop
      vertex -23.7031 -1.49127 -46
      vertex -23.5627 2.97666 -46
      vertex -23.5627 -2.97666 -46
    endloop
  endfacet
  facet normal 0 0 -1
    outer loop
      vertex -23.7031 -1.49127 -46
      vertex -23.7031 1.49127 -46
      vertex -23.5627 2.97666 -46
    endloop
  endfacet
  facet normal 0 -0 -1
    outer loop
      vertex -23.7031 1.49127 -46
      vertex -23.7031 -1.49127 -46
      vertex -23.75 2.90854e-15 -46
    endloop
  endfacet
  facet normal 0 0 1
    outer loop
      vertex 23.7031 1.49127 -41
      vertex 23.7031 -1.49127 -41
      vertex 23.75 0 -41
    endloop
  endfacet
  facet normal 0 0 1
    outer loop
      vertex 23.5627 2.97666 -41
      vertex 23.7031 -1.49127 -41
      vertex 23.7031 1.49127 -41
    endloop
  endfacet
  facet normal 0 0 1
    outer loop
      vertex 23.5627 2.97666 -41
      vertex 23.5627 -2.97666 -41
      vertex 23.7031 -1.49127 -41
    endloop
  endfacet
  facet normal 0 0 1
    outer loop
      vertex 23.3293 4.45031 -41
      vertex 23.5627 -2.97666 -41
      vertex 23.5627 2.97666 -41
    endloop
  endfacet
  facet normal 0 0 1
    outer loop
      vertex 23.3293 4.45031 -41
      vertex 23.3293 -4.45031 -41
      vertex 23.5627 -2.97666 -41
    endloop
  endfacet
  facet normal 0 0 1
    outer loop
      vertex 23.0039 5.90638 -41
      vertex 23.3293 -4.45031 -41
      vertex 23.3293 4.45031 -41
    endloop
  endfacet
  facet normal 0 0 1
    outer loop
      vertex 23.0039 5.90638 -41
      vertex 23.0039 -5.90638 -41
      vertex 23.3293 -4.45031 -41
    endloop
  endfacet
  facet normal 0 0 1
    outer loop
      vertex 22.5876 7.33915 -41
      vertex 23.0039 -5.90638 -41
      vertex 23.0039 5.90638 -41
    endloop
  endfacet
  facet normal 0 0 1
    outer loop
      vertex 22.5876 7.33915 -41
      vertex 22.5876 -7.33915 -41
      vertex 23.0039 -5.90638 -41
    endloop
  endfacet
  facet normal 0 0 1
    outer loop
      vertex 22.0822 8.74296 -41
      vertex 22.5876 -7.33915 -41
      vertex 22.5876 7.33915 -41
    endloop
  endfacet
  facet normal 0 0 1
    outer loop
      vertex 22.0822 8.74296 -41
      vertex 22.0822 -8.74296 -41
      vertex 22.5876 -7.33915 -41
    endloop
  endfacet
  facet normal 0 0 1
    outer loop
      vertex 21.4896 10.1123 -41
      vertex 22.0822 -8.74296 -41
      vertex 22.0822 8.74296 -41
    endloop
  endfacet
  facet normal 0 0 1
    outer loop
      vertex 21.4896 10.1123 -41
      vertex 21.4896 -10.1123 -41
      vertex 22.0822 -8.74296 -41
    endloop
  endfacet
  facet normal 0 0 1
    outer loop
      vertex 20.8123 11.4416 -41
      vertex 21.4896 -10.1123 -41
      vertex 21.4896 10.1123 -41
    endloop
  endfacet
  facet normal 0 0 1
    outer loop
      vertex 20.8123 11.4416 -41
      vertex 20.8123 -11.4416 -41
      vertex 21.4896 -10.1123 -41
    endloop
  endfacet
  facet normal 0 0 1
    outer loop
      vertex 20.0528 12.7259 -41
      vertex 20.8123 -11.4416 -41
      vertex 20.8123 11.4416 -41
    endloop
  endfacet
  facet normal 0 0 1
    outer loop
      vertex 20.0528 12.7259 -41
      vertex 20.0528 -12.7259 -41
      vertex 20.8123 -11.4416 -41
    endloop
  endfacet
  facet normal 0 0 1
    outer loop
      vertex 19.2142 13.9599 -41
      vertex 20.0528 -12.7259 -41
      vertex 20.0528 12.7259 -41
    endloop
  endfacet
  facet normal 0 0 1
    outer loop
      vertex 19.2142 13.9599 -41
      vertex 19.2142 -13.9599 -41
      vertex 20.0528 -12.7259 -41
    endloop
  endfacet
  facet normal 0 0 1
    outer loop
      vertex 18.2997 15.1388 -41
      vertex 19.2142 -13.9599 -41
      vertex 19.2142 13.9599 -41
    endloop
  endfacet
  facet normal 0 0 1
    outer loop
      vertex 18.2997 15.1388 -41
      vertex 18.2997 -15.1388 -41
      vertex 19.2142 -13.9599 -41
    endloop
  endfacet
  facet normal 0 0 1
    outer loop
      vertex 17.313 16.258 -41
      vertex 18.2997 -15.1388 -41
      vertex 18.2997 15.1388 -41
    endloop
  endfacet
  facet normal 0 0 1
    outer loop
      vertex 17.313 16.258 -41
      vertex 17.313 -16.258 -41
      vertex 18.2997 -15.1388 -41
    endloop
  endfacet
  facet normal 0 0 1
    outer loop
      vertex 16.258 17.313 -41
      vertex 17.313 -16.258 -41
      vertex 17.313 16.258 -41
    endloop
  endfacet
  facet normal 0 0 1
    outer loop
      vertex 16.258 17.313 -41
      vertex 16.258 -17.313 -41
      vertex 17.313 -16.258 -41
    endloop
  endfacet
  facet normal 0 0 1
    outer loop
      vertex 15.1388 18.2997 -41
      vertex 16.258 -17.313 -41
      vertex 16.258 17.313 -41
    endloop
  endfacet
  facet normal 0 0 1
    outer loop
      vertex 15.1388 18.2997 -41
      vertex 15.1388 -18.2997 -41
      vertex 16.258 -17.313 -41
    endloop
  endfacet
  facet normal 0 0 1
    outer loop
      vertex 13.9599 19.2142 -41
      vertex 15.1388 -18.2997 -41
      vertex 15.1388 18.2997 -41
    endloop
  endfacet
  facet normal 0 0 1
    outer loop
      vertex 13.9599 19.2142 -41
      vertex 13.9599 -19.2142 -41
      vertex 15.1388 -18.2997 -41
    endloop
  endfacet
  facet normal 0 0 1
    outer loop
      vertex 12.7259 20.0528 -41
      vertex 13.9599 -19.2142 -41
      vertex 13.9599 19.2142 -41
    endloop
  endfacet
  facet normal 0 0 1
    outer loop
      vertex 12.7259 20.0528 -41
      vertex 12.7259 -20.0528 -41
      vertex 13.9599 -19.2142 -41
    endloop
  endfacet
  facet normal 0 0 1
    outer loop
      vertex 11.4416 20.8123 -41
      vertex 12.7259 -20.0528 -41
      vertex 12.7259 20.0528 -41
    endloop
  endfacet
  facet normal 0 0 1
    outer loop
      vertex 11.4416 20.8123 -41
      vertex 11.4416 -20.8123 -41
      vertex 12.7259 -20.0528 -41
    endloop
  endfacet
  facet normal 0 0 1
    outer loop
      vertex 10.1123 21.4896 -41
      vertex 11.4416 -20.8123 -41
      vertex 11.4416 20.8123 -41
    endloop
  endfacet
  facet normal 0 0 1
    outer loop
      vertex 10.1123 21.4896 -41
      vertex 10.1123 -21.4896 -41
      vertex 11.4416 -20.8123 -41
    endloop
  endfacet
  facet normal 0 0 1
    outer loop
      vertex 8.74296 22.0822 -41
      vertex 10.1123 -21.4896 -41
      vertex 10.1123 21.4896 -41
    endloop
  endfacet
  facet normal 0 0 1
    outer loop
      vertex 8.74296 22.0822 -41
      vertex 8.74296 -22.0822 -41
      vertex 10.1123 -21.4896 -41
    endloop
  endfacet
  facet normal 0 0 1
    outer loop
      vertex 7.33915 22.5876 -41
      vertex 8.74296 -22.0822 -41
      vertex 8.74296 22.0822 -41
    endloop
  endfacet
  facet normal 0 0 1
    outer loop
      vertex 7.33915 22.5876 -41
      vertex 7.33915 -22.5876 -41
      vertex 8.74296 -22.0822 -41
    endloop
  endfacet
  facet normal 0 0 1
    outer loop
      vertex 5.90638 23.0039 -41
      vertex 7.33915 -22.5876 -41
      vertex 7.33915 22.5876 -41
    endloop
  endfacet
  facet normal 0 0 1
    outer loop
      vertex 5.90638 23.0039 -41
      vertex 5.90638 -23.0039 -41
      vertex 7.33915 -22.5876 -41
    endloop
  endfacet
  facet normal 0 0 1
    outer loop
      vertex 4.45031 23.3293 -41
      vertex 5.90638 -23.0039 -41
      vertex 5.90638 23.0039 -41
    endloop
  endfacet
  facet normal 0 0 1
    outer loop
      vertex 4.45031 23.3293 -41
      vertex 4.45031 -23.3293 -41
      vertex 5.90638 -23.0039 -41
    endloop
  endfacet
  facet normal 0 0 1
    outer loop
      vertex 2.97666 23.5627 -41
      vertex 4.45031 -23.3293 -41
      vertex 4.45031 23.3293 -41
    endloop
  endfacet
  facet normal 0 0 1
    outer loop
      vertex 2.97666 23.5627 -41
      vertex 2.97666 -23.5627 -41
      vertex 4.45031 -23.3293 -41
    endloop
  endfacet
  facet normal 0 0 1
    outer loop
      vertex 1.49127 23.7031 -41
      vertex 2.97666 -23.5627 -41
      vertex 2.97666 23.5627 -41
    endloop
  endfacet
  facet normal 0 0 1
    outer loop
      vertex 1.49127 23.7031 -41
      vertex 1.49127 -23.7031 -41
      vertex 2.97666 -23.5627 -41
    endloop
  endfacet
  facet normal 0 0 1
    outer loop
      vertex 1.45427e-15 23.75 -41
      vertex 1.49127 -23.7031 -41
      vertex 1.49127 23.7031 -41
    endloop
  endfacet
  facet normal 0 0 1
    outer loop
      vertex 1.45427e-15 23.75 -41
      vertex -4.3628e-15 -23.75 -41
      vertex 1.49127 -23.7031 -41
    endloop
  endfacet
  facet normal -0 0 1
    outer loop
      vertex -1.49127 23.7031 -41
      vertex -4.3628e-15 -23.75 -41
      vertex 1.45427e-15 23.75 -41
    endloop
  endfacet
  facet normal 0 0 1
    outer loop
      vertex -1.49127 23.7031 -41
      vertex -1.49127 -23.7031 -41
      vertex -4.3628e-15 -23.75 -41
    endloop
  endfacet
  facet normal -0 0 1
    outer loop
      vertex -2.97666 23.5627 -41
      vertex -1.49127 -23.7031 -41
      vertex -1.49127 23.7031 -41
    endloop
  endfacet
  facet normal 0 0 1
    outer loop
      vertex -2.97666 23.5627 -41
      vertex -2.97666 -23.5627 -41
      vertex -1.49127 -23.7031 -41
    endloop
  endfacet
  facet normal -0 0 1
    outer loop
      vertex -4.45031 23.3293 -41
      vertex -2.97666 -23.5627 -41
      vertex -2.97666 23.5627 -41
    endloop
  endfacet
  facet normal 0 0 1
    outer loop
      vertex -4.45031 23.3293 -41
      vertex -4.45031 -23.3293 -41
      vertex -2.97666 -23.5627 -41
    endloop
  endfacet
  facet normal -0 0 1
    outer loop
      vertex -5.90638 23.0039 -41
      vertex -4.45031 -23.3293 -41
      vertex -4.45031 23.3293 -41
    endloop
  endfacet
  facet normal 0 0 1
    outer loop
      vertex -5.90638 23.0039 -41
      vertex -5.90638 -23.0039 -41
      vertex -4.45031 -23.3293 -41
    endloop
  endfacet
  facet normal -0 0 1
    outer loop
      vertex -7.33915 22.5876 -41
      vertex -5.90638 -23.0039 -41
      vertex -5.90638 23.0039 -41
    endloop
  endfacet
  facet normal 0 0 1
    outer loop
      vertex -7.33915 22.5876 -41
      vertex -7.33915 -22.5876 -41
      vertex -5.90638 -23.0039 -41
    endloop
  endfacet
  facet normal -0 0 1
    outer loop
      vertex -8.74296 22.0822 -41
      vertex -7.33915 -22.5876 -41
      vertex -7.33915 22.5876 -41
    endloop
  endfacet
  facet normal 0 0 1
    outer loop
      vertex -8.74296 22.0822 -41
      vertex -8.74296 -22.0822 -41
      vertex -7.33915 -22.5876 -41
    endloop
  endfacet
  facet normal -0 0 1
    outer loop
      vertex -10.1123 21.4896 -41
      vertex -8.74296 -22.0822 -41
      vertex -8.74296 22.0822 -41
    endloop
  endfacet
  facet normal 0 0 1
    outer loop
      vertex -10.1123 21.4896 -41
      vertex -10.1123 -21.4896 -41
      vertex -8.74296 -22.0822 -41
    endloop
  endfacet
  facet normal -0 0 1
    outer loop
      vertex -11.4416 20.8123 -41
      vertex -10.1123 -21.4896 -41
      vertex -10.1123 21.4896 -41
    endloop
  endfacet
  facet normal 0 0 1
    outer loop
      vertex -11.4416 20.8123 -41
      vertex -11.4416 -20.8123 -41
      vertex -10.1123 -21.4896 -41
    endloop
  endfacet
  facet normal -0 0 1
    outer loop
      vertex -12.7259 20.0528 -41
      vertex -11.4416 -20.8123 -41
      vertex -11.4416 20.8123 -41
    endloop
  endfacet
  facet normal 0 0 1
    outer loop
      vertex -12.7259 20.0528 -41
      vertex -12.7259 -20.0528 -41
      vertex -11.4416 -20.8123 -41
    endloop
  endfacet
  facet normal -0 0 1
    outer loop
      vertex -13.9599 19.2142 -41
      vertex -12.7259 -20.0528 -41
      vertex -12.7259 20.0528 -41
    endloop
  endfacet
  facet normal 0 0 1
    outer loop
      vertex -13.9599 19.2142 -41
      vertex -13.9599 -19.2142 -41
      vertex -12.7259 -20.0528 -41
    endloop
  endfacet
  facet normal -0 0 1
    outer loop
      vertex -15.1388 18.2997 -41
      vertex -13.9599 -19.2142 -41
      vertex -13.9599 19.2142 -41
    endloop
  endfacet
  facet normal 0 0 1
    outer loop
      vertex -15.1388 18.2997 -41
      vertex -15.1388 -18.2997 -41
      vertex -13.9599 -19.2142 -41
    endloop
  endfacet
  facet normal -0 0 1
    outer loop
      vertex -16.258 17.313 -41
      vertex -15.1388 -18.2997 -41
      vertex -15.1388 18.2997 -41
    endloop
  endfacet
  facet normal 0 0 1
    outer loop
      vertex -16.258 17.313 -41
      vertex -16.258 -17.313 -41
      vertex -15.1388 -18.2997 -41
    endloop
  endfacet
  facet normal -0 0 1
    outer loop
      vertex -17.313 16.258 -41
      vertex -16.258 -17.313 -41
      vertex -16.258 17.313 -41
    endloop
  endfacet
  facet normal 0 0 1
    outer loop
      vertex -17.313 16.258 -41
      vertex -17.313 -16.258 -41
      vertex -16.258 -17.313 -41
    endloop
  endfacet
  facet normal -0 0 1
    outer loop
      vertex -18.2997 15.1388 -41
      vertex -17.313 -16.258 -41
      vertex -17.313 16.258 -41
    endloop
  endfacet
  facet normal 0 0 1
    outer loop
      vertex -18.2997 15.1388 -41
      vertex -18.2997 -15.1388 -41
      vertex -17.313 -16.258 -41
    endloop
  endfacet
  facet normal -0 0 1
    outer loop
      vertex -19.2142 13.9599 -41
      vertex -18.2997 -15.1388 -41
      vertex -18.2997 15.1388 -41
    endloop
  endfacet
  facet normal 0 0 1
    outer loop
      vertex -19.2142 13.9599 -41
      vertex -19.2142 -13.9599 -41
      vertex -18.2997 -15.1388 -41
    endloop
  endfacet
  facet normal -0 0 1
    outer loop
      vertex -20.0528 12.7259 -41
      vertex -19.2142 -13.9599 -41
      vertex -19.2142 13.9599 -41
    endloop
  endfacet
  facet normal 0 0 1
    outer loop
      vertex -20.0528 12.7259 -41
      vertex -20.0528 -12.7259 -41
      vertex -19.2142 -13.9599 -41
    endloop
  endfacet
  facet normal -0 0 1
    outer loop
      vertex -20.8123 11.4416 -41
      vertex -20.0528 -12.7259 -41
      vertex -20.0528 12.7259 -41
    endloop
  endfacet
  facet normal 0 0 1
    outer loop
      vertex -20.8123 11.4416 -41
      vertex -20.8123 -11.4416 -41
      vertex -20.0528 -12.7259 -41
    endloop
  endfacet
  facet normal -0 0 1
    outer loop
      vertex -21.4896 10.1123 -41
      vertex -20.8123 -11.4416 -41
      vertex -20.8123 11.4416 -41
    endloop
  endfacet
  facet normal 0 0 1
    outer loop
      vertex -21.4896 10.1123 -41
      vertex -21.4896 -10.1123 -41
      vertex -20.8123 -11.4416 -41
    endloop
  endfacet
  facet normal -0 0 1
    outer loop
      vertex -22.0822 8.74296 -41
      vertex -21.4896 -10.1123 -41
      vertex -21.4896 10.1123 -41
    endloop
  endfacet
  facet normal 0 0 1
    outer loop
      vertex -22.0822 8.74296 -41
      vertex -22.0822 -8.74296 -41
      vertex -21.4896 -10.1123 -41
    endloop
  endfacet
  facet normal -0 0 1
    outer loop
      vertex -22.5876 7.33915 -41
      vertex -22.0822 -8.74296 -41
      vertex -22.0822 8.74296 -41
    endloop
  endfacet
  facet normal 0 0 1
    outer loop
      vertex -22.5876 7.33915 -41
      vertex -22.5876 -7.33915 -41
      vertex -22.0822 -8.74296 -41
    endloop
  endfacet
  facet normal -0 0 1
    outer loop
      vertex -23.0039 5.90638 -41
      vertex -22.5876 -7.33915 -41
      vertex -22.5876 7.33915 -41
    endloop
  endfacet
  facet normal 0 0 1
    outer loop
      vertex -23.0039 5.90638 -41
      vertex -23.0039 -5.90638 -41
      vertex -22.5876 -7.33915 -41
    endloop
  endfacet
  facet normal -0 0 1
    outer loop
      vertex -23.3293 4.45031 -41
      vertex -23.0039 -5.90638 -41
      vertex -23.0039 5.90638 -41
    endloop
  endfacet
  facet normal 0 0 1
    outer loop
      vertex -23.3293 4.45031 -41
      vertex -23.3293 -4.45031 -41
      vertex -23.0039 -5.90638 -41
    endloop
  endfacet
  facet normal -0 0 1
    outer loop
      vertex -23.5627 2.97666 -41
      vertex -23.3293 -4.45031 -41
      vertex -23.3293 4.45031 -41
    endloop
  endfacet
  facet normal 0 0 1
    outer loop
      vertex -23.5627 2.97666 -41
      vertex -23.5627 -2.97666 -41
      vertex -23.3293 -4.45031 -41
    endloop
  endfacet
  facet normal -0 0 1
    outer loop
      vertex -23.7031 1.49127 -41
      vertex -23.5627 -2.97666 -41
      vertex -23.5627 2.97666 -41
    endloop
  endfacet
  facet normal 0 0 1
    outer loop
      vertex -23.7031 1.49127 -41
      vertex -23.7031 -1.49127 -41
      vertex -23.5627 -2.97666 -41
    endloop
  endfacet
  facet normal 0 -0 1
    outer loop
      vertex -23.7031 -1.49127 -41
      vertex -23.7031 1.49127 -41
      vertex -23.75 2.90854e-15 -41
    endloop
  endfacet
endsolid OpenSCAD_Model
